<svg t="1627718036199" class="icon" viewBox="0 0 1024 1024" version="1.1" xmlns="http://www.w3.org/2000/svg" p-id="29949" width="200" height="200"><path d="M526.847386 512.975376m-370.064771 0a370.064771 370.064771 0 1 0 740.129542 0 370.064771 370.064771 0 1 0-740.129542 0Z" fill="#E9EAEB" p-id="29950"></path><path d="M48.479786 512.975376h-36.125027A505.75037 505.75037 0 0 1 414.859804 19.218514l7.225005 35.402526A469.625344 469.625344 0 0 0 48.479786 512.975376zM516.371128 1016.991745v-36.125027a465.434841 465.434841 0 0 0 263.279193-81.064559l20.302265 29.839272a501.270867 501.270867 0 0 1-283.581458 87.350314zM1020.387497 512.975376h-36.125026a465.723841 465.723841 0 0 0-294.780216-434.873069l13.36626-33.524024A501.632117 501.632117 0 0 1 1020.387497 512.975376z" fill="#BCC0C4" p-id="29951"></path><path d="M296.225217 289.000212h-11.271008c-33.957525 165.524871-230.260919 276.500953-230.260919 468.902843a235.751923 235.751923 0 0 0 471.503845 0.50575C526.197135 566.006915 329.965992 454.525083 296.225217 289.000212z" fill="#d4237a" p-id="29952" data-spm-anchor-id="a313x.7781069.0.i40" class="selected"></path><path d="M290.445213 1010.70599a253.597686 253.597686 0 0 1-253.814436-252.875185c0-113.577083 63.507797-198.615395 124.920341-280.835956C208.658153 414.065053 252.875185 354.53101 267.325196 285.604459l2.962252-14.45001H310.675228l2.962252 14.45001c14.450011 68.92655 58.594793 128.532844 105.629577 191.679391 61.412545 82.43731 124.992592 167.620123 124.992592 281.197206a253.308686 253.308686 0 0 1-253.814436 252.224934z m0-675.682495c-21.675016 59.245043-61.484795 112.132082-99.921823 163.64637-57.800042 77.524307-117.767586 157.721866-117.767587 259.23319a217.689409 217.689409 0 0 0 435.378819 0.50575C508.206872 656.825231 447.950328 576.483172 390.150286 498.525365c-38.220278-51.297538-77.741057-104.256826-99.705073-163.50187z" fill="#2A5082" p-id="29953"></path><path d="M283.147957 939.250688c-101.150074 0-180.625132-87.205814-180.625132-198.543145h36.125027C138.720102 831.598109 202.300148 903.125661 283.147957 903.125661zM301.210471 830.875609h-36.125027a54.18754 54.18754 0 0 1-54.18754-54.18754h36.125027a18.062513 18.062513 0 0 0 18.062513 18.062513h36.125027a18.062513 18.062513 0 0 0 18.062513-18.062513v-28.105271a18.062513 18.062513 0 0 0-12.354759-17.123262l-58.956043-19.796515a54.04304 54.04304 0 0 1-36.992027-51.369787V650.250476a54.18754 54.18754 0 0 1 54.187539-54.115289h36.125027A54.18754 54.18754 0 0 1 355.39801 650.250476h-36.125026a18.062513 18.062513 0 0 0-18.062513-18.062513h-36.125027a18.062513 18.062513 0 0 0-18.062513 18.062513v10.115008a17.990263 17.990263 0 0 0 12.354759 17.123262l58.956043 19.652015a54.11529 54.11529 0 0 1 36.992027 51.369787v28.105271a54.18754 54.18754 0 0 1-54.115289 54.25979z" fill="#2A5082" p-id="29954"></path><path d="M265.085444 560.01016h36.125027v54.18754h-36.125027zM265.085444 812.668595h36.125027v54.18754h-36.125027z" fill="#2A5082" p-id="29955"></path><path d="M789.765328 307.279475h-7.875255C757.541805 425.697312 616.870952 505.31687 616.870952 643.025471a168.992874 168.992874 0 0 0 337.913497 0.36125c0-137.636351-140.670853-217.689409-165.019121-336.107246z" fill="#FFFFFF" p-id="29956"></path><path d="M785.791576 829.502858A186.838637 186.838637 0 0 1 598.808439 643.025471c0-83.087561 46.023284-144.500106 90.601566-204.3954 33.379524-44.722783 65.025048-86.700064 74.851055-135.179849l2.962252-14.45001h37.353277l2.962252 14.45001c9.898257 48.263035 41.47153 90.601566 74.851055 135.324349 44.506033 59.750794 90.601566 121.524589 90.601567 204.61215a186.694137 186.694137 0 0 1-187.199887 186.116137z m0-475.622099c-16.473012 38.292528-42.338531 72.828053-67.48155 106.568828C675.393495 517.888379 634.861215 572.075919 634.861215 643.025471a150.930361 150.930361 0 0 0 301.860721 0.36125c0-71.094052-40.53228-125.498342-83.448811-183.009384-25.143018-33.596275-51.297538-68.2763-67.481549-106.352078z" fill="#2A5082" p-id="29957"></path><path d="M806.599591 722.500529h-36.125027a54.18754 54.18754 0 0 1-54.187539-54.115289h36.125026a18.062513 18.062513 0 0 0 18.062513 18.062513h36.125027a18.062513 18.062513 0 0 0 18.062513-18.062513V658.197982a18.062513 18.062513 0 0 0-12.354759-17.123262L753.423552 621.350455a54.11529 54.11529 0 0 1-36.992027-51.369788v-10.115007a54.18754 54.18754 0 0 1 54.187539-54.18754h36.125027a54.18754 54.18754 0 0 1 54.18754 54.18754h-36.125027a18.062513 18.062513 0 0 0-18.062513-18.062513h-36.125027a18.062513 18.062513 0 0 0-18.062513 18.062513v10.115007a17.990263 17.990263 0 0 0 12.354759 17.123263L823.650603 606.900445a54.04304 54.04304 0 0 1 37.064277 51.369787v10.115008a54.18754 54.18754 0 0 1-54.115289 54.115289z" fill="#2A5082" p-id="29958"></path><path d="M770.546814 469.697594h36.125027v54.18754h-36.125027zM770.546814 704.365766h36.125027v54.18754h-36.125027z" fill="#2A5082" p-id="29959"></path><path d="M554.519156 18.496014h-6.213504C529.231638 111.409582 419.050307 173.833627 419.050307 281.775206a132.578847 132.578847 0 0 0 265.229944 0c-0.289-107.652579-110.687081-170.365625-129.761095-263.279192z" fill="#FFFFFF" p-id="29960"></path><path d="M551.412404 432.199817A150.56911 150.56911 0 0 1 400.771044 281.775206c0-66.470049 36.558527-115.600085 71.888802-162.707119 25.937769-34.752275 50.575037-67.481549 57.800043-104.545826l2.962252-14.450011h35.619276l2.962252 14.450011c7.586256 37.064277 32.079023 69.865801 57.800042 104.690326 35.330276 47.396035 71.888803 96.381571 71.888803 162.85162a150.42461 150.42461 0 0 1-150.28011 150.13561z m0-367.75277a472.948846 472.948846 0 0 1-49.852537 76.585056c-33.235024 44.506033-65.025048 86.700064-65.025047 141.104354a114.588584 114.588584 0 0 0 229.104918 0c0-54.54879-31.428773-96.670571-65.025048-141.321104a475.477598 475.477598 0 0 1-49.202286-76.368306z" fill="#2A5082" p-id="29961"></path><path d="M551.412404 355.54251a75.429055 75.429055 0 0 1-75.429055-75.429055" fill="#FFFFFF" p-id="29962"></path><path d="M551.412404 373.605024a93.925069 93.925069 0 0 1-93.491569-93.491569h36.125027a57.800042 57.800042 0 0 0 57.366542 57.366542z" fill="#2A5082" p-id="29963"></path></svg>